<?xml version="1.0" encoding="UTF-8"?>
<svg viewBox="0 0 32 32" xmlns="http://www.w3.org/2000/svg">
  <path fill="#00d9ff" d="M8 26c-1 0-2-.5-2-1.5V22c0-.5.2-1 .5-1.3.3-.3.7-.5 1.2-.5h.3c.3-1.5 1-2.8 2-3.8V12c0-2 .8-3.8 2-5.2C13.2 5.5 15 4.5 17 4.5c1.5 0 2.8.5 3.8 1.5.5-.3 1-.5 1.7-.5 1.4 0 2.5 1.1 2.5 2.5 0 .7-.3 1.3-.7 1.8.5.8.7 1.7.7 2.7 0 1.5-.5 2.8-1.5 4-.2.2-.4.4-.5.5v5.5c0 .5-.2 1-.5 1.3-.3.3-.7.5-1.2.5h-1.5c-1 0-1.8-.8-1.8-1.8v-1.2h-4v1.2c0 1-.8 1.8-1.8 1.8H8zm14-18c-.3 0-.5.2-.5.5s.2.5.5.5.5-.2.5-.5-.2-.5-.5-.5z"/>
</svg>
